# Blender v2.77 (sub 0) OBJ File: 'AirLock_Door.blend'
# www.blender.org
mtllib AirLock_Door_Upper.mtl
o SectionDoorUpper_HighPoly
v -0.197847 -0.014565 -0.901250
v -0.197847 -0.014565 -1.016250
v 0.202145 -0.017239 -1.016250
v -0.197847 -0.014566 0.898750
v -0.197847 -0.014567 1.033750
v 0.202145 -0.017239 -0.901250
v 0.202145 -0.017240 0.898750
v 0.202145 -0.017240 1.033750
v -0.190160 1.135407 1.033751
v 0.209831 1.132733 1.033751
v 0.209831 1.132735 0.898751
v 0.209831 1.132736 -0.901249
v 0.209831 1.132736 -1.016249
v -0.190160 1.135408 0.898751
v -0.190160 1.135409 -1.016249
v -0.190160 1.135409 -0.901249
v 0.205988 0.104729 -0.901250
v 0.205988 0.104728 0.898750
v -0.194003 0.104728 0.898750
v -0.194003 0.104729 -0.901250
v 0.207909 1.004729 -0.901249
v 0.207909 1.004728 0.898751
v -0.192082 1.004728 0.898751
v -0.192082 1.004729 -0.901249
v 0.147354 0.744858 -0.641250
v 0.147354 0.744857 0.638750
v 0.146543 0.364856 0.638750
v 0.146543 0.364857 -0.641250
v -0.132637 0.744600 0.638750
v -0.132637 0.744602 -0.641250
v -0.133448 0.364600 -0.641250
v -0.133448 0.364599 0.638750
v 0.157909 1.004836 -0.901249
v 0.155988 0.104836 -0.901250
v 0.157909 1.004835 0.898751
v 0.155988 0.104835 0.898750
v -0.142082 1.004621 0.898751
v -0.144003 0.104621 0.898750
v -0.142082 1.004622 -0.901249
v -0.144003 0.104622 -0.901250
v 0.157888 0.994836 -0.891249
v 0.156009 0.114836 -0.891250
v 0.157888 0.994835 0.888751
v 0.156009 0.114835 0.888750
v -0.142103 0.994621 0.888751
v -0.143982 0.114621 0.888750
v -0.142103 0.994622 -0.891249
v -0.143982 0.114622 -0.891250
v 0.197674 0.894751 -0.791250
v 0.196223 0.214750 -0.791250
v 0.197674 0.894749 0.788751
v 0.196223 0.214749 0.788750
v -0.182317 0.894707 0.788751
v -0.183769 0.214706 0.788750
v -0.182317 0.894708 -0.791250
v -0.183769 0.214707 -0.791250
v 0.197568 0.844751 -0.741250
v 0.196329 0.264750 -0.741250
v 0.197568 0.844750 0.738750
v 0.196329 0.264749 0.738750
v -0.182423 0.844707 0.738750
v -0.183662 0.264706 0.738750
v -0.182423 0.844708 -0.741250
v -0.183662 0.264707 -0.741250
vt 0.6667 0.7500
vt 0.6667 0.5000
vt 0.6667 0.5000
vt 0.3333 0.7500
vt 0.6667 0.7500
vt 0.3333 0.5000
vt 0.3333 0.7500
vt 0.3333 0.5000
vt 0.6667 0.5000
vt 0.6667 0.7500
vt 0.6667 0.5000
vt 0.3333 0.7500
vt 0.6667 0.7500
vt 0.3333 0.5000
vt 0.3333 0.7500
vt 0.3333 0.5000
vt 0.6667 0.7500
vt 0.6667 0.5000
vt 0.3333 0.7500
vt 0.3333 0.5000
vt 0.6667 0.5000
vt 0.6667 0.7500
vt 0.3333 0.7500
vt 0.3333 0.5000
vt 0.6667 0.7500
vt 0.6667 0.5000
vt 0.3333 0.7500
vt 0.3333 0.5000
vt 0.6667 0.5000
vt 0.6667 0.7500
vt 0.3333 0.5000
vt 0.3333 0.7500
vt 0.6667 0.5000
vt 0.6667 0.7500
vt 0.3333 0.5000
vt 0.3333 0.7500
vt 0.6667 0.5000
vt 0.6667 0.7500
vt 0.3333 0.5000
vt 0.3333 0.7500
vt 0.6667 0.5000
vt 0.6667 0.7500
vt 0.3333 0.5000
vt 0.3333 0.7500
vt 0.6667 0.7500
vt 0.6667 0.5000
vt 0.3333 0.7500
vt 0.3333 0.5000
vt 0.6667 0.0000
vt 0.3333 0.0000
vt 0.3333 0.0000
vt 1.0000 0.0000
vt 0.6667 0.0000
vt 0.0000 0.0000
vt 0.0000 0.0000
vt 1.0000 1.0000
vt 0.3333 1.0000
vt 0.6667 1.0000
vt 0.6667 1.0000
vt 1.0000 1.0000
vt 0.3333 1.0000
vt 1.0000 0.0000
vt 0.0000 1.0000
vt 0.0000 0.0000
vt 1.0000 1.0000
vt 0.0000 1.0000
vt 0.0000 1.0000
vt 1.0000 1.0000
vt 1.0000 0.0000
vt 0.0000 0.0000
vt 0.0000 1.0000
vt 1.0000 0.0000
vn 0.0000 -0.0000 1.0000
vn -0.0021 -1.0000 -0.0000
vn 0.0000 0.0000 -1.0000
vn 0.0021 1.0000 0.0000
vn 1.0000 -0.0021 0.0000
vn -1.0000 0.0021 0.0000
vn 0.9285 -0.0020 -0.3714
vn 0.9293 0.3694 0.0000
vn 0.9285 -0.0020 0.3714
vn 0.9277 -0.3734 -0.0000
vn -0.9285 0.0020 0.3714
vn -0.9277 0.3734 0.0000
vn -0.9285 0.0020 -0.3714
vn -0.9293 -0.3694 -0.0000
vn 0.8944 -0.0019 0.4472
vn 0.8935 -0.4491 -0.0000
vn 0.8944 -0.0019 -0.4472
vn 0.8954 0.4453 0.0000
vn -0.8944 0.0019 -0.4472
vn -0.8954 -0.4453 -0.0000
vn -0.8944 0.0019 0.4472
vn -0.8935 0.4491 0.0000
vn 0.0065 -0.9999 -0.0117
vn -0.0071 -1.0000 0.0039
vn -0.0069 -1.0000 0.0022
vn 0.0013 -1.0000 -0.0034
vn 0.0063 -0.9999 -0.0137
vn -0.0268 -0.9996 -0.0024
vn -0.0067 -1.0000 -0.0000
vn 0.0067 1.0000 0.0000
vn 0.0010 1.0000 -0.0053
vn 0.0068 1.0000 0.0009
vn 0.0068 1.0000 0.0015
vn 0.0065 1.0000 -0.0042
vn 0.0012 1.0000 -0.0062
vn 0.9997 -0.0189 -0.0133
vn 0.9995 -0.0312 -0.0022
vn 0.9989 -0.0444 0.0137
vn -0.9997 0.0206 -0.0103
vn -0.9995 0.0318 -0.0039
vn -0.9989 0.0454 0.0117
vn 0.9999 -0.0103 -0.0040
vn 0.9985 -0.0154 0.0518
vn 0.9996 -0.0297 0.0006
vn 0.9998 -0.0159 -0.0083
vn 0.9910 -0.0332 0.1296
vn 0.9999 -0.0135 0.0012
vn 0.9999 -0.0098 -0.0050
vn 0.9998 -0.0206 0.0053
vn -0.9999 0.0098 -0.0030
vn -0.9990 0.0151 0.0419
vn -0.9996 0.0270 -0.0020
vn -0.9998 0.0173 -0.0111
vn -0.9870 0.0336 0.1573
vn -0.9999 0.0146 0.0025
vn -0.9999 0.0091 -0.0064
vn -0.9998 0.0202 0.0062
vn 0.9999 -0.0149 -0.0015
vn -0.9999 0.0146 -0.0009
usemtl None
s off
f 21/1/1 34/2/1 17/3/1
f 22/4/2 33/5/2 21/1/2
f 22/4/3 36/6/3 35/7/3
f 17/3/4 36/6/4 18/8/4
f 19/9/3 37/10/3 38/11/3
f 24/12/2 37/10/2 23/13/2
f 20/14/1 39/15/1 24/12/1
f 19/9/4 40/16/4 20/14/4
f 34/2/5 41/17/5 42/18/5
f 35/7/5 41/17/5 33/5/5
f 36/6/5 43/19/5 35/7/5
f 34/2/5 44/20/5 36/6/5
f 37/10/6 46/21/6 38/11/6
f 39/15/6 45/22/6 37/10/6
f 40/16/6 47/23/6 39/15/6
f 38/11/6 48/24/6 40/16/6
f 42/18/7 49/25/7 50/26/7
f 43/19/8 49/25/8 41/17/8
f 44/20/9 51/27/9 43/19/9
f 42/18/10 52/28/10 44/20/10
f 45/22/11 54/29/11 46/21/11
f 47/23/12 53/30/12 45/22/12
f 47/23/13 56/31/13 55/32/13
f 46/21/14 56/31/14 48/24/14
f 49/25/5 58/33/5 50/26/5
f 51/27/5 57/34/5 49/25/5
f 51/27/5 60/35/5 59/36/5
f 50/26/5 60/35/5 52/28/5
f 53/30/6 62/37/6 54/29/6
f 55/32/6 61/38/6 53/30/6
f 55/32/6 64/39/6 63/40/6
f 54/29/6 64/39/6 56/31/6
f 57/34/15 28/41/15 58/33/15
f 59/36/16 25/42/16 57/34/16
f 59/36/17 27/43/17 26/44/17
f 58/33/18 27/43/18 60/35/18
f 62/37/19 29/45/19 32/46/19
f 61/38/20 30/47/20 29/45/20
f 63/40/21 31/48/21 30/47/21
f 62/37/22 31/48/22 64/39/22
f 21/1/1 33/5/1 34/2/1
f 22/4/2 35/7/2 33/5/2
f 22/4/3 18/8/3 36/6/3
f 17/3/4 34/2/4 36/6/4
f 19/9/3 23/13/3 37/10/3
f 24/12/2 39/15/2 37/10/2
f 20/14/1 40/16/1 39/15/1
f 19/9/4 38/11/4 40/16/4
f 34/2/5 33/5/5 41/17/5
f 35/7/5 43/19/5 41/17/5
f 36/6/5 44/20/5 43/19/5
f 34/2/5 42/18/5 44/20/5
f 37/10/6 45/22/6 46/21/6
f 39/15/6 47/23/6 45/22/6
f 40/16/6 48/24/6 47/23/6
f 38/11/6 46/21/6 48/24/6
f 42/18/7 41/17/7 49/25/7
f 43/19/8 51/27/8 49/25/8
f 44/20/9 52/28/9 51/27/9
f 42/18/10 50/26/10 52/28/10
f 45/22/11 53/30/11 54/29/11
f 47/23/12 55/32/12 53/30/12
f 47/23/13 48/24/13 56/31/13
f 46/21/14 54/29/14 56/31/14
f 49/25/5 57/34/5 58/33/5
f 51/27/5 59/36/5 57/34/5
f 51/27/5 52/28/5 60/35/5
f 50/26/5 58/33/5 60/35/5
f 53/30/6 61/38/6 62/37/6
f 55/32/6 63/40/6 61/38/6
f 55/32/6 56/31/6 64/39/6
f 54/29/6 62/37/6 64/39/6
f 57/34/15 25/42/15 28/41/15
f 59/36/16 26/44/16 25/42/16
f 59/36/17 60/35/17 27/43/17
f 58/33/18 28/41/18 27/43/18
f 62/37/19 61/38/19 29/45/19
f 61/38/20 63/40/20 30/47/20
f 63/40/21 64/39/21 31/48/21
f 62/37/22 32/46/22 31/48/22
s 1
f 4/49/23 1/50/24 7/51/25
f 1/50/24 3/52/26 6/53/27
f 8/54/28 5/55/29 7/51/25
f 10/56/30 11/57/31 14/58/32
f 12/59/33 14/58/32 11/57/31
f 12/59/33 13/60/34 16/61/35
f 8/62/1 9/63/1 5/55/1
f 17/3/36 7/51/37 6/53/38
f 3/64/3 15/65/3 13/66/3
f 19/9/39 1/50/40 4/49/41
f 13/60/42 21/1/43 3/52/44
f 3/52/44 17/3/36 6/53/38
f 8/54/45 18/8/46 10/67/47
f 10/67/47 22/4/48 11/57/49
f 9/68/50 23/13/51 5/69/52
f 5/69/52 19/9/39 4/49/41
f 2/70/53 20/14/54 15/71/55
f 15/71/55 24/12/56 16/61/57
f 26/44/5 28/41/5 25/42/5
f 29/45/6 31/48/6 32/46/6
f 11/57/49 21/1/43 12/59/58
f 16/61/57 23/13/51 14/58/59
f 5/55/29 4/49/23 7/51/25
f 1/50/24 6/53/27 7/51/25
f 3/64/26 1/50/24 2/72/29
f 14/58/32 9/63/30 10/56/30
f 16/61/35 14/58/32 12/59/33
f 15/65/30 16/61/35 13/66/34
f 8/62/1 10/56/1 9/63/1
f 17/3/36 18/8/46 7/51/37
f 3/64/3 2/72/3 15/65/3
f 19/9/39 20/14/54 1/50/40
f 13/60/42 12/59/58 21/1/43
f 3/52/44 21/1/43 17/3/36
f 8/54/45 7/51/37 18/8/46
f 10/67/47 18/8/46 22/4/48
f 9/68/50 14/58/59 23/13/51
f 5/69/52 23/13/51 19/9/39
f 2/70/53 1/50/40 20/14/54
f 15/71/55 20/14/54 24/12/56
f 26/44/5 27/43/5 28/41/5
f 29/45/6 30/47/6 31/48/6
f 11/57/49 22/4/48 21/1/43
f 16/61/57 24/12/56 23/13/51
