# Blender v2.77 (sub 0) OBJ File: 'Ceiling_Light_Style_04.blend'
# www.blender.org
mtllib Ceiling_Light_Style_04.mtl
o Box001
v 3.924420 0.000000 -0.904059
v -3.924420 0.000000 -0.904059
v -4.024420 -0.041806 0.051626
v -4.024420 0.649531 0.051626
v -4.024420 0.649531 -0.091215
v -4.024420 0.476696 -0.722838
v -4.024420 0.606322 -0.476215
v -4.024420 0.260654 -0.887838
v -4.024420 -0.041806 -0.942838
v -3.924420 0.589207 -0.479856
v -3.924420 0.628487 -0.129856
v 3.924420 0.628487 -0.129856
v 3.924420 0.589207 -0.479856
v -3.924420 0.471366 -0.704059
v 3.924420 0.471366 -0.704059
v -3.924420 0.274963 -0.854059
v 3.924420 0.274963 -0.854059
v -3.924420 0.628487 0.000000
v 3.924420 0.628487 0.000000
v 4.024420 -0.041806 0.051626
v 4.024420 -0.041806 -0.942838
v 4.024420 0.260654 -0.887838
v 4.024420 0.476696 -0.722838
v 4.024420 0.606322 -0.476215
v 4.024420 0.649531 -0.091215
v 4.024420 0.649531 0.051626
v 3.925245 -0.041806 -0.942838
v 3.974420 0.000000 -0.904059
v 3.925245 0.260654 -0.887838
v 3.925245 0.476696 -0.722838
v 3.925245 0.606322 -0.476215
v 3.925245 0.649531 -0.091215
v 3.925245 0.649531 0.051626
v -3.925993 0.649531 -0.091215
v -3.925993 0.649531 0.051626
v -3.925993 0.606322 -0.476215
v -3.925993 0.476696 -0.722838
v -3.925993 0.260654 -0.887838
v -3.925993 -0.041806 -0.942838
v -3.925993 0.000000 -0.904059
vt 0.0277 0.4375
vt 0.0000 0.0000
vt 0.1106 0.7500
vt 0.0000 0.0000
vt 0.2489 0.9375
vt 0.8894 0.7500
vt 0.5000 0.0000
vt 0.9723 0.4375
vt 0.7511 0.9375
vt 0.9723 0.4375
vt 1.0000 0.0000
vt 0.9723 0.4375
vt 0.8894 0.7500
vt 0.8894 0.7500
vt 0.7511 0.9375
vt 0.7511 0.9375
vt 0.5576 1.0000
vt 0.5000 1.0000
vt 0.5576 1.0000
vt 0.4424 1.0000
vt 0.5000 1.0000
vt 0.4424 1.0000
vt 0.2489 0.9375
vt 0.2489 0.9375
vt 0.1106 0.7500
vt 0.0277 0.4375
vt 0.1106 0.7500
vt 0.0000 0.0000
vt 0.0277 0.4375
vt 1.0000 0.0000
vt 0.5576 1.0000
vt 0.5000 1.0000
vt 0.5000 1.0000
vt 0.5000 1.0000
vt 0.4424 1.0000
vt 0.0000 0.0000
vt 1.0000 0.0000
vt 0.5000 1.0000
vt 1.0000 0.6655
vt 0.0000 0.4991
vt 1.0000 0.4991
vt 0.0000 0.3327
vt 1.0000 0.3327
vt 0.0000 0.1664
vt 1.0000 0.1664
vt 0.0000 0.0000
vt 1.0000 0.0000
vt 0.0000 0.5576
vt 1.0000 0.5000
vt 1.0000 0.5576
vt 0.0000 0.6655
vt 0.0000 0.5000
vn -1.0000 0.0000 0.0000
vn 1.0000 0.0000 0.0000
vn -0.9996 0.0048 -0.0264
vn -0.9990 0.0275 -0.0361
vn -0.9981 0.0542 -0.0285
vn -0.9988 0.0493 -0.0055
vn -0.9992 0.0392 0.0000
vn 0.9972 0.0745 0.0000
vn 0.9955 0.0938 -0.0105
vn 0.9932 0.1028 -0.0540
vn 0.9963 0.0524 -0.0686
vn 0.9987 0.0092 -0.0504
vn 0.0000 0.1789 -0.9839
vn 0.0000 0.6070 -0.7947
vn 0.0000 0.8852 -0.4653
vn 0.0000 0.9938 -0.1115
vn 0.0000 1.0000 0.0000
vn 0.9955 0.0937 -0.0105
vn 0.9932 0.1027 -0.0540
vn 0.0000 0.9984 -0.0559
vn 0.0000 0.9560 -0.2935
vn 0.0000 0.7640 -0.6452
vn 0.0000 0.4042 -0.9147
usemtl None
s off
f 8/1/1 3/2/1 6/3/1
f 8/1/1 9/4/1 3/2/1
f 3/2/1 7/5/1 6/3/1
f 23/6/2 20/7/2 22/8/2
f 24/9/2 20/7/2 23/6/2
f 29/10/3 1/11/3 17/12/3
f 30/13/4 17/12/4 15/14/4
f 31/15/5 15/14/5 13/16/5
f 12/17/6 31/15/6 13/16/6
f 19/18/7 32/19/7 12/17/7
f 34/20/8 18/21/8 11/22/8
f 36/23/9 11/22/9 10/24/9
f 14/25/10 36/23/10 10/24/10
f 16/26/11 37/27/11 14/25/11
f 2/28/12 38/29/12 16/26/12
f 21/30/13 29/10/13 22/8/13
f 22/8/14 30/13/14 23/6/14
f 23/6/15 31/15/15 24/9/15
f 24/9/16 32/19/16 25/31/16
f 25/31/17 33/32/17 26/33/17
f 4/34/17 34/20/17 5/35/17
f 5/35/16 36/23/16 7/5/16
f 7/5/15 37/27/15 6/3/15
f 6/3/14 38/29/14 8/1/14
f 8/1/13 39/36/13 9/4/13
f 22/8/2 20/7/2 21/30/2
f 7/5/1 3/2/1 5/35/1
f 3/2/1 4/34/1 5/35/1
f 25/31/2 20/7/2 24/9/2
f 20/7/2 25/31/2 26/33/2
f 29/10/3 27/37/3 1/11/3
f 30/13/4 29/10/4 17/12/4
f 31/15/5 30/13/5 15/14/5
f 12/17/6 32/19/6 31/15/6
f 19/18/7 33/32/7 32/19/7
f 34/20/8 35/38/8 18/21/8
f 36/23/18 34/20/18 11/22/18
f 14/25/19 37/27/19 36/23/19
f 16/26/11 38/29/11 37/27/11
f 2/28/12 39/36/12 38/29/12
f 21/30/13 27/37/13 29/10/13
f 22/8/14 29/10/14 30/13/14
f 23/6/15 30/13/15 31/15/15
f 24/9/16 31/15/16 32/19/16
f 25/31/17 32/19/17 33/32/17
f 4/34/17 35/38/17 34/20/17
f 5/35/16 34/20/16 36/23/16
f 7/5/15 36/23/15 37/27/15
f 6/3/14 37/27/14 38/29/14
f 8/1/13 38/29/13 39/36/13
s 1
f 11/39/20 13/40/21 10/41/21
f 10/41/21 15/42/22 14/43/22
f 14/43/22 17/44/23 16/45/23
f 16/45/23 1/46/13 2/47/13
f 11/48/20 19/49/17 12/50/20
f 11/39/20 12/51/20 13/40/21
f 10/41/21 13/40/21 15/42/22
f 14/43/22 15/42/22 17/44/23
f 16/45/23 17/44/23 1/46/13
f 11/48/20 18/52/17 19/49/17
