# Blender v2.77 (sub 0) OBJ File: 'Light_Freestanding_Style01 Uv map.blend'
# www.blender.org
mtllib Light_Freestanding_Style01 Uv map.mtl
o Light_1_High_Poly_
v 0.419778 0.400000 0.000000
v 0.394463 0.400000 -0.143571
v 0.394463 5.400000 -0.143570
v 0.419778 5.400000 0.000001
v 0.321569 0.400000 -0.269825
v 0.321569 5.400000 -0.269824
v 0.209889 0.400000 -0.363534
v 0.209889 5.400000 -0.363533
v 0.072894 0.400000 -0.413395
v 0.072894 5.400000 -0.413394
v -0.072894 0.400000 -0.413395
v -0.072894 5.400000 -0.413394
v -0.209889 0.400000 -0.363533
v -0.209889 5.400000 -0.363532
v -0.321569 0.400000 -0.269824
v -0.321569 5.400000 -0.269823
v -0.394463 0.400000 -0.143571
v -0.394463 5.400000 -0.143570
v -0.419778 0.400000 0.000000
v -0.419778 5.400000 0.000001
v -0.394463 0.400000 0.143571
v -0.394463 5.400000 0.143572
v -0.321569 0.400000 0.269824
v -0.321569 5.400000 0.269825
v -0.209889 0.400000 0.363533
v -0.209889 5.400000 0.363534
v -0.072894 0.400000 0.413395
v -0.072894 5.400000 0.413396
v 0.072893 0.400000 0.413395
v 0.072893 5.400000 0.413396
v 0.209889 0.400000 0.363534
v 0.209889 5.400000 0.363535
v 0.321569 0.400000 0.269825
v 0.321569 5.400000 0.269826
v 0.394463 0.400000 0.143571
v 0.394463 5.400000 0.143572
v 0.203622 5.400000 -0.074110
v 0.216690 5.400000 0.000001
v 0.165995 5.400000 -0.139283
v 0.108345 5.400000 -0.187656
v 0.037628 5.400000 -0.213394
v -0.037628 5.400000 -0.213394
v -0.108345 5.400000 -0.187655
v -0.165995 5.400000 -0.139283
v -0.203622 5.400000 -0.074110
v -0.216690 5.400000 0.000001
v -0.203622 5.400000 0.074112
v -0.165995 5.400000 0.139285
v -0.108346 5.400000 0.187657
v -0.037628 5.400000 0.213396
v 0.037628 5.400000 0.213396
v 0.108345 5.400000 0.187658
v 0.165995 5.400000 0.139285
v 0.203622 5.400000 0.074113
v 0.927500 0.000000 0.000000
v 0.871564 0.000000 -0.317219
v 0.871564 0.200000 -0.317219
v 0.927500 0.200000 0.000000
v 0.710506 0.000000 -0.596176
v 0.710506 0.200000 -0.596176
v 0.463750 0.000000 -0.803226
v 0.463750 0.200000 -0.803226
v 0.161058 0.000000 -0.913395
v 0.161058 0.200000 -0.913395
v -0.161058 0.000000 -0.913395
v -0.161058 0.200000 -0.913395
v -0.463750 0.000000 -0.803226
v -0.463750 0.200000 -0.803226
v -0.710506 0.000000 -0.596176
v -0.710506 0.200000 -0.596176
v -0.871564 0.000000 -0.317219
v -0.871564 0.200000 -0.317219
v -0.927500 0.000000 0.000000
v -0.927500 0.200000 0.000000
v -0.871565 -0.000000 0.317219
v -0.871565 0.200000 0.317219
v -0.710506 -0.000000 0.596176
v -0.710506 0.200000 0.596176
v -0.463750 -0.000000 0.803226
v -0.463750 0.200000 0.803226
v -0.161059 -0.000000 0.913395
v -0.161059 0.200000 0.913395
v 0.161058 -0.000000 0.913395
v 0.161058 0.200000 0.913395
v 0.463749 -0.000000 0.803226
v 0.463749 0.200000 0.803226
v 0.710506 -0.000000 0.596177
v 0.710506 0.200000 0.596177
v 0.871564 -0.000000 0.317219
v 0.871564 0.200000 0.317219
v 0.776145 0.200000 -0.282489
v 0.825956 0.200000 0.000000
v 0.632719 0.200000 -0.530906
v 0.412977 0.200000 -0.715288
v 0.143425 0.200000 -0.813395
v -0.143426 0.200000 -0.813395
v -0.412978 0.200000 -0.715288
v -0.632719 0.200000 -0.530906
v -0.776145 0.200000 -0.282489
v -0.825956 0.200000 0.000000
v -0.776145 0.200000 0.282489
v -0.632719 0.200000 0.530906
v -0.412978 0.200000 0.715288
v -0.143426 0.200000 0.813395
v 0.143425 0.200000 0.813395
v 0.412977 0.200000 0.715288
v 0.632719 0.200000 0.530906
v 0.776144 0.200000 0.282490
v 0.776145 0.400000 -0.282489
v 0.825956 0.400000 0.000000
v 0.632719 0.400000 -0.530906
v 0.412977 0.400000 -0.715288
v 0.143425 0.400000 -0.813395
v -0.143426 0.400000 -0.813395
v -0.412978 0.400000 -0.715288
v -0.632719 0.400000 -0.530906
v -0.776145 0.400000 -0.282489
v -0.825956 0.400000 0.000000
v -0.776145 0.400000 0.282489
v -0.632719 0.400000 0.530906
v -0.412978 0.400000 0.715288
v -0.143426 0.400000 0.813395
v 0.143425 0.400000 0.813395
v 0.412977 0.400000 0.715288
v 0.632719 0.400000 0.530906
v 0.776144 0.400000 0.282490
v 0.000000 0.000000 0.000000
vt 0.1731 0.0001
vt 0.1558 0.5935
vt 0.1558 0.0001
vt 0.1904 0.0001
vt 0.1731 0.5935
vt 0.2077 0.0001
vt 0.1904 0.5935
vt 0.2250 0.0001
vt 0.2077 0.5935
vt 0.2423 0.0001
vt 0.2250 0.5935
vt 0.2596 0.0001
vt 0.2423 0.5935
vt 0.2769 0.0001
vt 0.2596 0.5935
vt 0.2942 0.0001
vt 0.2769 0.5935
vt 0.3115 0.0001
vt 0.2942 0.5935
vt 0.0174 0.0001
vt 0.0001 0.5935
vt 0.0001 0.0001
vt 0.0347 0.0001
vt 0.0174 0.5935
vt 0.0520 0.0001
vt 0.0347 0.5935
vt 0.0693 0.0001
vt 0.0520 0.5935
vt 0.0866 0.0001
vt 0.0693 0.5935
vt 0.1039 0.0001
vt 0.0866 0.5935
vt 0.1212 0.0001
vt 0.1039 0.5935
vt 0.1385 0.0001
vt 0.1212 0.5935
vt 0.1385 0.5935
vt 0.6078 0.4867
vt 0.5821 0.4955
vt 0.5837 0.4867
vt 0.6047 0.5037
vt 0.5776 0.5032
vt 0.5828 0.5298
vt 0.5961 0.5187
vt 0.5666 0.5357
vt 0.5708 0.5089
vt 0.5493 0.5357
vt 0.5624 0.5120
vt 0.5330 0.5298
vt 0.5535 0.5120
vt 0.5382 0.5032
vt 0.5451 0.5089
vt 0.5198 0.5187
vt 0.5338 0.4955
vt 0.5081 0.4867
vt 0.5111 0.5037
vt 0.5338 0.4779
vt 0.5322 0.4867
vt 0.5198 0.4547
vt 0.5111 0.4696
vt 0.5330 0.4435
vt 0.5382 0.4701
vt 0.5535 0.4613
vt 0.5451 0.4644
vt 0.5666 0.4376
vt 0.5493 0.4376
vt 0.5708 0.4644
vt 0.5624 0.4613
vt 0.5828 0.4435
vt 0.5776 0.4701
vt 0.5961 0.4547
vt 0.5821 0.4779
vt 0.6047 0.4696
vt 0.5155 0.3823
vt 0.4832 0.4024
vt 0.5051 0.3763
vt 0.4910 0.4116
vt 0.4537 0.4194
vt 0.4202 0.4373
vt 0.4579 0.4307
vt 0.3826 0.4307
vt 0.4202 0.4253
vt 0.3495 0.4116
vt 0.3867 0.4194
vt 0.3249 0.3823
vt 0.3572 0.4024
vt 0.3118 0.3464
vt 0.3353 0.3763
vt 0.3118 0.3082
vt 0.3237 0.3443
vt 0.3249 0.2722
vt 0.3237 0.3102
vt 0.3572 0.2522
vt 0.3353 0.2783
vt 0.3826 0.2238
vt 0.3495 0.2430
vt 0.4202 0.2293
vt 0.3867 0.2352
vt 0.4579 0.2238
vt 0.4202 0.2172
vt 0.4910 0.2430
vt 0.4537 0.2352
vt 0.5051 0.2783
vt 0.4832 0.2522
vt 0.5286 0.3082
vt 0.5155 0.2722
vt 0.5286 0.3464
vt 0.5167 0.3102
vt 0.5167 0.3443
vt 0.6522 0.6550
vt 0.6182 0.6787
vt 0.6182 0.6550
vt 0.6863 0.6550
vt 0.6522 0.6787
vt 0.7203 0.6550
vt 0.6863 0.6787
vt 0.7543 0.6550
vt 0.7203 0.6787
vt 0.7884 0.6550
vt 0.7543 0.6787
vt 0.8224 0.6550
vt 0.7884 0.6787
vt 0.8565 0.6550
vt 0.8224 0.6787
vt 0.8905 0.6550
vt 0.8565 0.6787
vt 0.9245 0.6550
vt 0.8905 0.6787
vt 0.3459 0.6550
vt 0.3118 0.6787
vt 0.3118 0.6550
vt 0.3799 0.6550
vt 0.3459 0.6787
vt 0.4139 0.6550
vt 0.3799 0.6787
vt 0.4480 0.6550
vt 0.4139 0.6787
vt 0.4820 0.6550
vt 0.4480 0.6787
vt 0.5161 0.6550
vt 0.4820 0.6787
vt 0.5501 0.6550
vt 0.5161 0.6787
vt 0.5841 0.6550
vt 0.5501 0.6787
vt 0.5841 0.6787
vt 0.4849 0.5971
vt 0.4347 0.5773
vt 0.4480 0.5662
vt 0.4268 0.6307
vt 0.4588 0.6190
vt 0.3928 0.6307
vt 0.4185 0.5832
vt 0.3608 0.6190
vt 0.4012 0.5832
vt 0.3717 0.5662
vt 0.3849 0.5773
vt 0.3347 0.5971
vt 0.3630 0.5512
vt 0.3118 0.5341
vt 0.3177 0.5677
vt 0.3630 0.5171
vt 0.3600 0.5341
vt 0.3347 0.4711
vt 0.3177 0.5006
vt 0.3849 0.4910
vt 0.3717 0.5021
vt 0.3928 0.4376
vt 0.3608 0.4493
vt 0.4185 0.4851
vt 0.4012 0.4851
vt 0.4588 0.4493
vt 0.4268 0.4376
vt 0.4849 0.4711
vt 0.4347 0.4910
vt 0.4566 0.5171
vt 0.4480 0.5021
vt 0.5019 0.5006
vt 0.4596 0.5341
vt 0.5078 0.5341
vt 0.4566 0.5512
vt 0.5019 0.5677
vt 0.3115 0.5935
vt 0.9245 0.6787
vt 0.6176 0.6547
vt 0.6558 0.6309
vt 0.6558 0.6547
vt 0.5794 0.6547
vt 0.6176 0.6309
vt 0.5412 0.6547
vt 0.5794 0.6309
vt 0.5029 0.6547
vt 0.5412 0.6309
vt 0.4647 0.6547
vt 0.5029 0.6309
vt 0.4265 0.6547
vt 0.4647 0.6309
vt 0.3883 0.6547
vt 0.4265 0.6309
vt 0.3500 0.6547
vt 0.3883 0.6309
vt 0.3118 0.6547
vt 0.3500 0.6309
vt 0.9616 0.6547
vt 0.9999 0.6309
vt 0.9999 0.6547
vt 0.9234 0.6547
vt 0.9616 0.6309
vt 0.8852 0.6547
vt 0.9234 0.6309
vt 0.8470 0.6547
vt 0.8852 0.6309
vt 0.8087 0.6547
vt 0.8470 0.6309
vt 0.7705 0.6547
vt 0.8087 0.6309
vt 0.7323 0.6547
vt 0.7705 0.6309
vt 0.6941 0.6547
vt 0.7323 0.6309
vt 0.6941 0.6309
vt 0.3118 0.1085
vt 0.4219 0.1085
vt 0.3185 0.1462
vt 0.5253 0.1462
vt 0.5062 0.1793
vt 0.5319 0.1085
vt 0.3668 0.0132
vt 0.4028 0.0001
vt 0.3668 0.2039
vt 0.4028 0.2169
vt 0.4410 0.2169
vt 0.3376 0.1793
vt 0.4769 0.2039
vt 0.5253 0.0709
vt 0.5062 0.0378
vt 0.4769 0.0132
vt 0.4410 0.0001
vt 0.3376 0.0378
vt 0.3185 0.0709
vt 0.3118 0.6309
vn 0.9848 0.0000 -0.1736
vn 0.8660 0.0000 -0.5000
vn 0.6428 0.0000 -0.7660
vn 0.3420 0.0000 -0.9397
vn 0.0000 0.0000 -1.0000
vn -0.3420 0.0000 -0.9397
vn -0.6428 0.0000 -0.7660
vn -0.8660 0.0000 -0.5000
vn -0.9848 0.0000 -0.1736
vn -0.9848 -0.0000 0.1736
vn -0.8660 -0.0000 0.5000
vn -0.6428 -0.0000 0.7660
vn -0.3420 -0.0000 0.9397
vn 0.0000 -0.0000 1.0000
vn 0.3420 -0.0000 0.9397
vn 0.6428 -0.0000 0.7660
vn 0.8660 -0.0000 0.5000
vn 0.9848 -0.0000 0.1736
vn 0.0000 1.0000 0.0000
vn 0.9848 -0.0000 0.1737
vn 0.9397 0.0000 -0.3420
vn 1.0000 -0.0000 0.0000
vn 0.7660 0.0000 -0.6428
vn 0.5000 0.0000 -0.8660
vn 0.1736 0.0000 -0.9848
vn -0.1736 0.0000 -0.9848
vn -0.5000 0.0000 -0.8660
vn -0.7660 0.0000 -0.6428
vn -0.9397 0.0000 -0.3420
vn -1.0000 0.0000 -0.0000
vn -0.9397 0.0000 0.3420
vn -0.7660 0.0000 0.6428
vn -0.5000 0.0000 0.8660
vn -0.1736 0.0000 0.9848
vn 0.1736 0.0000 0.9848
vn 0.5000 0.0000 0.8660
vn 0.7660 0.0000 0.6428
vn 0.9397 -0.0000 0.3420
vn 0.0000 -1.0000 -0.0000
usemtl Material
s off
f 2/1/1 4/2/1 1/3/1
f 5/4/2 3/5/2 2/1/2
f 7/6/3 6/7/3 5/4/3
f 9/8/4 8/9/4 7/6/4
f 11/10/5 10/11/5 9/8/5
f 13/12/6 12/13/6 11/10/6
f 15/14/7 14/15/7 13/12/7
f 17/16/8 16/17/8 15/14/8
f 19/18/9 18/19/9 17/16/9
f 21/20/10 20/21/10 19/22/10
f 23/23/11 22/24/11 21/20/11
f 25/25/12 24/26/12 23/23/12
f 27/27/13 26/28/13 25/25/13
f 29/29/14 28/30/14 27/27/14
f 31/31/15 30/32/15 29/29/15
f 33/33/16 32/34/16 31/31/16
f 35/35/17 34/36/17 33/33/17
f 1/3/18 36/37/18 35/35/18
f 4/38/19 37/39/19 38/40/19
f 3/41/19 39/42/19 37/39/19
f 8/43/19 39/42/19 6/44/19
f 10/45/19 40/46/19 8/43/19
f 12/47/19 41/48/19 10/45/19
f 14/49/19 42/50/19 12/47/19
f 14/49/19 44/51/19 43/52/19
f 16/53/19 45/54/19 44/51/19
f 20/55/19 45/54/19 18/56/19
f 20/55/19 47/57/19 46/58/19
f 24/59/19 47/57/19 22/60/19
f 26/61/19 48/62/19 24/59/19
f 26/61/19 50/63/19 49/64/19
f 30/65/19 50/63/19 28/66/19
f 30/65/19 52/67/19 51/68/19
f 32/69/19 53/70/19 52/67/19
f 34/71/19 54/72/19 53/70/19
f 4/38/19 54/72/19 36/73/19
f 58/74/19 91/75/19 92/76/19
f 57/77/19 93/78/19 91/75/19
f 62/79/19 93/78/19 60/80/19
f 64/81/19 94/82/19 62/79/19
f 66/83/19 95/84/19 64/81/19
f 68/85/19 96/86/19 66/83/19
f 70/87/19 97/88/19 68/85/19
f 72/89/19 98/90/19 70/87/19
f 74/91/19 99/92/19 72/89/19
f 74/91/19 101/93/19 100/94/19
f 78/95/19 101/93/19 76/96/19
f 78/95/19 103/97/19 102/98/19
f 82/99/19 103/97/19 80/100/19
f 84/101/19 104/102/19 82/99/19
f 84/101/19 106/103/19 105/104/19
f 88/105/19 106/103/19 86/106/19
f 90/107/19 107/108/19 88/105/19
f 90/107/19 92/76/19 108/109/19
f 91/110/1 110/111/1 92/112/1
f 93/113/2 109/114/2 91/110/2
f 94/115/3 111/116/3 93/113/3
f 95/117/4 112/118/4 94/115/4
f 96/119/5 113/120/5 95/117/5
f 97/121/6 114/122/6 96/119/6
f 98/123/7 115/124/7 97/121/7
f 99/125/8 116/126/8 98/123/8
f 100/127/9 117/128/9 99/125/9
f 101/129/10 118/130/10 100/131/10
f 102/132/11 119/133/11 101/129/11
f 103/134/12 120/135/12 102/132/12
f 104/136/13 121/137/13 103/134/13
f 105/138/14 122/139/14 104/136/14
f 106/140/15 123/141/15 105/138/15
f 107/142/16 124/143/16 106/140/16
f 108/144/17 125/145/17 107/142/17
f 92/112/20 126/146/20 108/144/20
f 110/147/19 2/148/19 1/149/19
f 111/150/19 2/148/19 109/151/19
f 112/152/19 5/153/19 111/150/19
f 113/154/19 7/155/19 112/152/19
f 113/154/19 11/156/19 9/157/19
f 114/158/19 13/159/19 11/156/19
f 116/160/19 13/159/19 115/161/19
f 116/160/19 17/162/19 15/163/19
f 118/164/19 17/162/19 117/165/19
f 118/164/19 21/166/19 19/167/19
f 120/168/19 21/166/19 119/169/19
f 120/168/19 25/170/19 23/171/19
f 122/172/19 25/170/19 121/173/19
f 123/174/19 27/175/19 122/172/19
f 123/174/19 31/176/19 29/177/19
f 124/178/19 33/179/19 31/176/19
f 125/180/19 35/181/19 33/179/19
f 110/147/19 35/181/19 126/182/19
f 2/1/1 3/5/1 4/2/1
f 5/4/2 6/7/2 3/5/2
f 7/6/3 8/9/3 6/7/3
f 9/8/4 10/11/4 8/9/4
f 11/10/5 12/13/5 10/11/5
f 13/12/6 14/15/6 12/13/6
f 15/14/7 16/17/7 14/15/7
f 17/16/8 18/19/8 16/17/8
f 19/18/9 20/183/9 18/19/9
f 21/20/10 22/24/10 20/21/10
f 23/23/11 24/26/11 22/24/11
f 25/25/12 26/28/12 24/26/12
f 27/27/13 28/30/13 26/28/13
f 29/29/14 30/32/14 28/30/14
f 31/31/15 32/34/15 30/32/15
f 33/33/16 34/36/16 32/34/16
f 35/35/17 36/37/17 34/36/17
f 1/3/18 4/2/18 36/37/18
f 4/38/19 3/41/19 37/39/19
f 3/41/19 6/44/19 39/42/19
f 8/43/19 40/46/19 39/42/19
f 10/45/19 41/48/19 40/46/19
f 12/47/19 42/50/19 41/48/19
f 14/49/19 43/52/19 42/50/19
f 14/49/19 16/53/19 44/51/19
f 16/53/19 18/56/19 45/54/19
f 20/55/19 46/58/19 45/54/19
f 20/55/19 22/60/19 47/57/19
f 24/59/19 48/62/19 47/57/19
f 26/61/19 49/64/19 48/62/19
f 26/61/19 28/66/19 50/63/19
f 30/65/19 51/68/19 50/63/19
f 30/65/19 32/69/19 52/67/19
f 32/69/19 34/71/19 53/70/19
f 34/71/19 36/73/19 54/72/19
f 4/38/19 38/40/19 54/72/19
f 58/74/19 57/77/19 91/75/19
f 57/77/19 60/80/19 93/78/19
f 62/79/19 94/82/19 93/78/19
f 64/81/19 95/84/19 94/82/19
f 66/83/19 96/86/19 95/84/19
f 68/85/19 97/88/19 96/86/19
f 70/87/19 98/90/19 97/88/19
f 72/89/19 99/92/19 98/90/19
f 74/91/19 100/94/19 99/92/19
f 74/91/19 76/96/19 101/93/19
f 78/95/19 102/98/19 101/93/19
f 78/95/19 80/100/19 103/97/19
f 82/99/19 104/102/19 103/97/19
f 84/101/19 105/104/19 104/102/19
f 84/101/19 86/106/19 106/103/19
f 88/105/19 107/108/19 106/103/19
f 90/107/19 108/109/19 107/108/19
f 90/107/19 58/74/19 92/76/19
f 91/110/1 109/114/1 110/111/1
f 93/113/2 111/116/2 109/114/2
f 94/115/3 112/118/3 111/116/3
f 95/117/4 113/120/4 112/118/4
f 96/119/5 114/122/5 113/120/5
f 97/121/6 115/124/6 114/122/6
f 98/123/7 116/126/7 115/124/7
f 99/125/8 117/128/8 116/126/8
f 100/127/9 118/184/9 117/128/9
f 101/129/10 119/133/10 118/130/10
f 102/132/11 120/135/11 119/133/11
f 103/134/12 121/137/12 120/135/12
f 104/136/13 122/139/13 121/137/13
f 105/138/14 123/141/14 122/139/14
f 106/140/15 124/143/15 123/141/15
f 107/142/16 125/145/16 124/143/16
f 108/144/17 126/146/17 125/145/17
f 92/112/20 110/111/20 126/146/20
f 110/147/19 109/151/19 2/148/19
f 111/150/19 5/153/19 2/148/19
f 112/152/19 7/155/19 5/153/19
f 113/154/19 9/157/19 7/155/19
f 113/154/19 114/158/19 11/156/19
f 114/158/19 115/161/19 13/159/19
f 116/160/19 15/163/19 13/159/19
f 116/160/19 117/165/19 17/162/19
f 118/164/19 19/167/19 17/162/19
f 118/164/19 119/169/19 21/166/19
f 120/168/19 23/171/19 21/166/19
f 120/168/19 121/173/19 25/170/19
f 122/172/19 27/175/19 25/170/19
f 123/174/19 29/177/19 27/175/19
f 123/174/19 124/178/19 31/176/19
f 124/178/19 125/180/19 33/179/19
f 125/180/19 126/182/19 35/181/19
f 110/147/19 1/149/19 35/181/19
s 1
f 56/185/21 58/186/22 55/187/22
f 59/188/23 57/189/21 56/185/21
f 61/190/24 60/191/23 59/188/23
f 63/192/25 62/193/24 61/190/24
f 65/194/26 64/195/25 63/192/25
f 67/196/27 66/197/26 65/194/26
f 69/198/28 68/199/27 67/196/27
f 71/200/29 70/201/28 69/198/28
f 73/202/30 72/203/29 71/200/29
f 75/204/31 74/205/30 73/206/30
f 77/207/32 76/208/31 75/204/31
f 79/209/33 78/210/32 77/207/32
f 81/211/34 80/212/33 79/209/33
f 83/213/35 82/214/34 81/211/34
f 85/215/36 84/216/35 83/213/35
f 87/217/37 86/218/36 85/215/36
f 89/219/38 88/220/37 87/217/37
f 55/187/22 90/221/38 89/219/38
f 73/222/39 127/223/39 75/224/39
f 89/225/39 87/226/39 127/223/39
f 127/223/39 55/227/39 89/225/39
f 67/228/39 65/229/39 127/223/39
f 79/230/39 127/223/39 81/231/39
f 83/232/39 81/231/39 127/223/39
f 127/223/39 77/233/39 75/224/39
f 127/223/39 79/230/39 77/233/39
f 87/226/39 85/234/39 127/223/39
f 127/223/39 85/234/39 83/232/39
f 127/223/39 56/235/39 55/227/39
f 56/235/39 127/223/39 59/236/39
f 61/237/39 59/236/39 127/223/39
f 63/238/39 61/237/39 127/223/39
f 65/229/39 63/238/39 127/223/39
f 127/223/39 69/239/39 67/228/39
f 69/239/39 127/223/39 71/240/39
f 127/223/39 73/222/39 71/240/39
f 56/185/21 57/189/21 58/186/22
f 59/188/23 60/191/23 57/189/21
f 61/190/24 62/193/24 60/191/23
f 63/192/25 64/195/25 62/193/24
f 65/194/26 66/197/26 64/195/25
f 67/196/27 68/199/27 66/197/26
f 69/198/28 70/201/28 68/199/27
f 71/200/29 72/203/29 70/201/28
f 73/202/30 74/241/30 72/203/29
f 75/204/31 76/208/31 74/205/30
f 77/207/32 78/210/32 76/208/31
f 79/209/33 80/212/33 78/210/32
f 81/211/34 82/214/34 80/212/33
f 83/213/35 84/216/35 82/214/34
f 85/215/36 86/218/36 84/216/35
f 87/217/37 88/220/37 86/218/36
f 89/219/38 90/221/38 88/220/37
f 55/187/22 58/186/22 90/221/38
