# Blender v2.77 (sub 0) OBJ File: ''
# www.blender.org
mtllib Arrow.mtl
o Cone_Cone.001
v 0.011470 -0.299032 0.114911
v -0.046868 -0.293286 0.114911
v -0.102965 -0.276270 0.114911
v -0.154663 -0.248636 0.114911
v -0.199978 -0.211448 0.114911
v -0.237166 -0.166133 0.114911
v -0.264800 -0.114435 0.114911
v -0.281816 -0.058338 0.114911
v -0.287562 0.000000 0.114911
v 0.011470 -0.000000 0.914911
v -0.281816 0.058338 0.114911
v -0.264800 0.114435 0.114911
v -0.237166 0.166133 0.114911
v -0.199978 0.211448 0.114911
v -0.154663 0.248636 0.114911
v -0.102965 0.276270 0.114911
v -0.046868 0.293287 0.114911
v 0.011470 0.299032 0.114911
v 0.069808 0.293286 0.114911
v 0.125905 0.276270 0.114911
v 0.177604 0.248636 0.114911
v 0.222918 0.211448 0.114911
v 0.260106 0.166133 0.114911
v 0.287740 0.114434 0.114911
v 0.304756 0.058338 0.114911
v 0.310502 -0.000000 0.114911
v 0.304756 -0.058339 0.114911
v 0.287740 -0.114435 0.114911
v 0.260106 -0.166134 0.114911
v 0.222917 -0.211448 0.114911
v 0.177603 -0.248636 0.114911
v 0.125904 -0.276270 0.114911
v 0.069808 -0.293287 0.114911
v 0.011470 -0.500000 0.114911
v -0.086075 -0.490393 0.114911
v -0.179872 -0.461940 0.114911
v -0.266315 -0.415735 0.114911
v -0.342083 -0.353553 0.114911
v -0.404265 -0.277785 0.114911
v -0.450470 -0.191342 0.114911
v -0.478923 -0.097545 0.114911
v -0.488530 -0.000000 0.114912
v -0.478923 0.097545 0.114912
v -0.450470 0.191342 0.114912
v -0.404265 0.277785 0.114912
v -0.342083 0.353553 0.114912
v -0.266315 0.415735 0.114912
v -0.179872 0.461940 0.114911
v -0.086075 0.490393 0.114911
v 0.011470 0.500000 0.114911
v 0.109015 0.490393 0.114911
v 0.202812 0.461940 0.114911
v 0.289255 0.415735 0.114911
v 0.365024 0.353553 0.114911
v 0.427205 0.277785 0.114911
v 0.473410 0.191341 0.114911
v 0.501863 0.097545 0.114911
v 0.511470 -0.000000 0.114911
v 0.501863 -0.097546 0.114911
v 0.473410 -0.191342 0.114911
v 0.427204 -0.277786 0.114911
v 0.365023 -0.353554 0.114911
v 0.289255 -0.415735 0.114911
v 0.202811 -0.461940 0.114911
v 0.109014 -0.490393 0.114911
v 0.011470 -0.299032 -0.685089
v -0.046868 -0.293286 -0.685089
v -0.102965 -0.276270 -0.685089
v -0.154663 -0.248636 -0.685089
v -0.199978 -0.211448 -0.685089
v -0.237166 -0.166133 -0.685089
v -0.264800 -0.114435 -0.685089
v -0.281817 -0.058338 -0.685089
v -0.287562 0.000000 -0.685089
v -0.281817 0.058338 -0.685089
v -0.264800 0.114435 -0.685089
v -0.237166 0.166133 -0.685089
v -0.199978 0.211448 -0.685089
v -0.154663 0.248636 -0.685089
v -0.102965 0.276270 -0.685089
v -0.046868 0.293287 -0.685089
v 0.011470 0.299032 -0.685089
v 0.069808 0.293286 -0.685089
v 0.125905 0.276270 -0.685089
v 0.177604 0.248636 -0.685089
v 0.222918 0.211448 -0.685089
v 0.260106 0.166133 -0.685089
v 0.287740 0.114434 -0.685089
v 0.304756 0.058338 -0.685089
v 0.310502 -0.000000 -0.685089
v 0.304756 -0.058339 -0.685089
v 0.287740 -0.114435 -0.685089
v 0.260106 -0.166134 -0.685089
v 0.222917 -0.211448 -0.685089
v 0.177603 -0.248636 -0.685089
v 0.125904 -0.276270 -0.685089
v 0.069808 -0.293287 -0.685089
vn -0.0832 -0.8451 0.5282
vn -0.2465 -0.8126 0.5282
vn -0.4003 -0.7489 0.5282
vn -0.5387 -0.6564 0.5282
vn -0.6564 -0.5387 0.5282
vn -0.7489 -0.4003 0.5282
vn -0.8126 -0.2465 0.5282
vn -0.8451 -0.0832 0.5282
vn -0.8451 0.0832 0.5282
vn -0.8126 0.2465 0.5282
vn -0.7489 0.4003 0.5282
vn -0.6564 0.5387 0.5282
vn -0.5387 0.6564 0.5282
vn -0.4003 0.7489 0.5282
vn -0.2465 0.8126 0.5282
vn -0.0832 0.8451 0.5282
vn 0.0832 0.8451 0.5282
vn 0.2465 0.8126 0.5282
vn 0.4003 0.7489 0.5282
vn 0.5387 0.6564 0.5282
vn 0.6564 0.5387 0.5282
vn 0.7489 0.4003 0.5282
vn 0.8126 0.2465 0.5282
vn 0.8451 0.0832 0.5282
vn 0.8451 -0.0832 0.5282
vn 0.8126 -0.2465 0.5282
vn 0.7489 -0.4003 0.5282
vn 0.6564 -0.5387 0.5282
vn 0.5387 -0.6564 0.5282
vn 0.4003 -0.7489 0.5282
vn 0.2465 -0.8126 0.5282
vn 0.0832 -0.8451 0.5282
vn -0.2903 -0.9569 0.0000
vn -0.0000 0.0000 -1.0000
vn 0.6344 -0.7730 -0.0000
vn -0.0980 0.9952 0.0000
vn -0.4714 -0.8819 0.0000
vn 0.4714 -0.8819 -0.0000
vn 0.0980 0.9952 -0.0000
vn -0.6344 -0.7730 0.0000
vn 0.2903 -0.9569 0.0000
vn 0.2903 0.9569 0.0000
vn -0.7730 -0.6344 0.0000
vn 0.0980 -0.9952 -0.0000
vn 0.4714 0.8819 -0.0000
vn -0.8819 -0.4714 0.0000
vn 0.6344 0.7730 -0.0000
vn -0.9569 -0.2903 0.0000
vn 0.7730 0.6344 -0.0000
vn -0.9952 -0.0980 0.0000
vn 0.8819 0.4714 -0.0000
vn -0.9952 0.0980 0.0000
vn 0.9569 0.2903 -0.0000
vn -0.9569 0.2903 0.0000
vn 0.9952 0.0980 -0.0000
vn -0.8819 0.4714 0.0000
vn 0.9952 -0.0980 -0.0000
vn -0.7730 0.6344 0.0000
vn 0.9569 -0.2903 -0.0000
vn -0.6344 0.7730 0.0000
vn 0.8819 -0.4714 -0.0000
vn -0.4714 0.8819 0.0000
vn -0.0980 -0.9952 0.0000
vn 0.7730 -0.6344 -0.0000
vn -0.2903 0.9569 0.0000
usemtl None
s off
f 34//1 10//1 35//1
f 35//2 10//2 36//2
f 36//3 10//3 37//3
f 37//4 10//4 38//4
f 38//5 10//5 39//5
f 39//6 10//6 40//6
f 40//7 10//7 41//7
f 41//8 10//8 42//8
f 42//9 10//9 43//9
f 43//10 10//10 44//10
f 44//11 10//11 45//11
f 45//12 10//12 46//12
f 46//13 10//13 47//13
f 47//14 10//14 48//14
f 48//15 10//15 49//15
f 49//16 10//16 50//16
f 50//17 10//17 51//17
f 51//18 10//18 52//18
f 52//19 10//19 53//19
f 53//20 10//20 54//20
f 54//21 10//21 55//21
f 55//22 10//22 56//22
f 56//23 10//23 57//23
f 57//24 10//24 58//24
f 58//25 10//25 59//25
f 59//26 10//26 60//26
f 60//27 10//27 61//27
f 61//28 10//28 62//28
f 62//29 10//29 63//29
f 63//30 10//30 64//30
f 64//31 10//31 65//31
f 65//32 10//32 34//32
f 2//33 3//33 68//33 67//33
f 2//34 1//34 34//34 35//34
f 3//34 2//34 35//34 36//34
f 4//34 3//34 36//34 37//34
f 5//34 4//34 37//34 38//34
f 6//34 5//34 38//34 39//34
f 7//34 6//34 39//34 40//34
f 8//34 7//34 40//34 41//34
f 9//34 8//34 41//34 42//34
f 11//34 9//34 42//34 43//34
f 12//34 11//34 43//34 44//34
f 13//34 12//34 44//34 45//34
f 14//34 13//34 45//34 46//34
f 15//34 14//34 46//34 47//34
f 16//34 15//34 47//34 48//34
f 17//34 16//34 48//34 49//34
f 18//34 17//34 49//34 50//34
f 19//34 18//34 50//34 51//34
f 20//34 19//34 51//34 52//34
f 21//34 20//34 52//34 53//34
f 22//34 21//34 53//34 54//34
f 23//34 22//34 54//34 55//34
f 24//34 23//34 55//34 56//34
f 25//34 24//34 56//34 57//34
f 26//34 25//34 57//34 58//34
f 27//34 26//34 58//34 59//34
f 28//34 27//34 59//34 60//34
f 29//34 28//34 60//34 61//34
f 30//34 29//34 61//34 62//34
f 31//34 30//34 62//34 63//34
f 32//34 31//34 63//34 64//34
f 33//34 32//34 64//34 65//34
f 1//34 33//34 65//34 34//34
f 66//34 67//34 68//34 69//34 70//34 71//34 72//34 73//34 74//34 75//34 76//34 77//34 78//34 79//34 80//34 81//34 82//34 83//34 84//34 85//34 86//34 87//34 88//34 89//34 90//34 91//34 92//34 93//34 94//34 95//34 96//34 97//34
f 30//35 31//35 95//35 94//35
f 17//36 18//36 82//36 81//36
f 3//37 4//37 69//37 68//37
f 31//38 32//38 96//38 95//38
f 18//39 19//39 83//39 82//39
f 4//40 5//40 70//40 69//40
f 32//41 33//41 97//41 96//41
f 19//42 20//42 84//42 83//42
f 5//43 6//43 71//43 70//43
f 33//44 1//44 66//44 97//44
f 20//45 21//45 85//45 84//45
f 6//46 7//46 72//46 71//46
f 21//47 22//47 86//47 85//47
f 7//48 8//48 73//48 72//48
f 22//49 23//49 87//49 86//49
f 8//50 9//50 74//50 73//50
f 23//51 24//51 88//51 87//51
f 9//52 11//52 75//52 74//52
f 24//53 25//53 89//53 88//53
f 11//54 12//54 76//54 75//54
f 25//55 26//55 90//55 89//55
f 12//56 13//56 77//56 76//56
f 26//57 27//57 91//57 90//57
f 13//58 14//58 78//58 77//58
f 27//59 28//59 92//59 91//59
f 14//60 15//60 79//60 78//60
f 28//61 29//61 93//61 92//61
f 15//62 16//62 80//62 79//62
f 1//63 2//63 67//63 66//63
f 29//64 30//64 94//64 93//64
f 16//65 17//65 81//65 80//65
