# Blender v2.77 (sub 0) OBJ File: 'Airlock_Door_Magnets_high.blend'
# www.blender.org
mtllib Door_Upper.mtl
o SectionDoorUpper_HighPoly
v -0.199996 -0.119293 -0.900000
v -0.199996 -0.119293 -1.015000
v 0.199996 -0.121967 -1.015000
v -0.199996 -0.119295 0.900000
v -0.199996 -0.119296 1.035000
v 0.199996 -0.121967 -0.900000
v 0.199996 -0.121969 0.900000
v 0.199996 -0.121969 1.035000
v -0.192309 1.030679 1.035001
v 0.207682 1.028005 1.035001
v 0.207682 1.028006 0.900001
v 0.207682 1.028008 -0.899999
v 0.207682 1.028008 -1.014999
v -0.192309 1.030679 0.900001
v -0.192309 1.030681 -1.014999
v -0.192309 1.030681 -0.899999
v 0.203839 0.000001 -0.900000
v 0.203839 -0.000001 0.900000
v -0.196152 -0.000001 0.900000
v -0.196152 0.000001 -0.900000
v 0.205760 0.900001 -0.899999
v 0.205760 0.899999 0.900001
v -0.194231 0.899999 0.900001
v -0.194231 0.900001 -0.899999
v 0.145205 0.640129 -0.640000
v 0.145205 0.640129 0.640000
v 0.144394 0.260128 0.640000
v 0.144394 0.260128 -0.640000
v -0.134786 0.639872 0.640000
v -0.134786 0.639873 -0.640000
v -0.135597 0.259871 -0.640000
v -0.135597 0.259871 0.640000
v 0.155760 0.900108 -0.899999
v 0.153839 0.000108 -0.900000
v 0.155760 0.900106 0.900001
v 0.153839 0.000106 0.900000
v -0.144231 0.899892 0.900001
v -0.146152 -0.000108 0.900000
v -0.144231 0.899894 -0.899999
v -0.146152 -0.000106 -0.900000
v 0.155739 0.890108 -0.889999
v 0.153860 0.010108 -0.890000
v 0.155739 0.890106 0.890001
v 0.153860 0.010106 0.890000
v -0.144252 0.889892 0.890001
v -0.146131 0.009892 0.890000
v -0.144252 0.889894 -0.889999
v -0.146131 0.009894 -0.890000
v 0.195525 0.790023 -0.789999
v 0.194074 0.110022 -0.790000
v 0.195525 0.790020 0.790001
v 0.194074 0.110020 0.790000
v -0.184466 0.789978 0.790001
v -0.185918 0.109977 0.790000
v -0.184466 0.789980 -0.789999
v -0.185918 0.109979 -0.790000
v 0.195419 0.740022 -0.740000
v 0.194180 0.160021 -0.740000
v 0.195419 0.740022 0.740000
v 0.194180 0.160021 0.740000
v -0.184572 0.739979 0.740000
v -0.185811 0.159978 0.740000
v -0.184572 0.739980 -0.740000
v -0.185811 0.159978 -0.740000
vt 0.6667 0.5000
vt 0.6667 0.7500
vt 0.6667 0.7500
vt 0.6667 0.5000
vt 0.3333 0.7500
vt 0.3333 0.7500
vt 0.3333 0.5000
vt 0.3333 0.5000
vt 0.6667 0.5000
vt 0.6667 0.7500
vt 0.6667 0.7500
vt 0.6667 0.5000
vt 0.3333 0.7500
vt 0.3333 0.7500
vt 0.3333 0.5000
vt 0.3333 0.5000
vt 0.6667 0.7500
vt 0.6667 0.5000
vt 0.3333 0.7500
vt 0.3333 0.5000
vt 0.6667 0.7500
vt 0.6667 0.5000
vt 0.3333 0.7500
vt 0.3333 0.5000
vt 0.6667 0.7500
vt 0.6667 0.5000
vt 0.3333 0.7500
vt 0.3333 0.5000
vt 0.6667 0.7500
vt 0.6667 0.5000
vt 0.3333 0.7500
vt 0.3333 0.5000
vt 0.6667 0.7500
vt 0.6667 0.5000
vt 0.3333 0.7500
vt 0.3333 0.5000
vt 0.6667 0.7500
vt 0.6667 0.5000
vt 0.3333 0.7500
vt 0.3333 0.5000
vt 0.6667 0.7500
vt 0.6667 0.5000
vt 0.3333 0.7500
vt 0.3333 0.5000
vt 0.6667 0.7500
vt 0.6667 0.5000
vt 0.3333 0.7500
vt 0.3333 0.5000
vt 1.0000 0.6667
vt 1.0000 1.0000
vt 0.0000 1.0000
vt 1.0000 0.3333
vt 1.0000 0.0000
vt 0.0000 0.6667
vt 0.0000 0.3333
vt 0.0000 0.0000
vt 0.0000 0.0000
vt 1.0000 0.0000
vt 1.0000 0.3333
vt 1.0000 0.6667
vt 1.0000 1.0000
vt 0.0000 0.3333
vt 0.0000 1.0000
vt 0.0000 0.6667
vt 0.0000 0.0000
vt 1.0000 0.0000
vt 1.0000 1.0000
vt 0.0000 1.0000
vt 0.6667 0.0000
vt 0.3333 0.0000
vt 0.0000 0.0000
vt 1.0000 0.0000
vt 1.0000 1.0000
vt 0.0000 1.0000
vt 0.6667 0.0000
vt 0.3333 0.0000
vt 1.0000 0.0000
vt 0.6667 1.0000
vt 0.0000 1.0000
vt 0.3333 1.0000
vt 1.0000 1.0000
vt 0.6667 1.0000
vt 0.0000 0.0000
vt 0.3333 1.0000
vn -0.0000 -0.0000 1.0000
vn -0.0021 -1.0000 -0.0000
vn -0.0000 0.0000 -1.0000
vn 0.0021 1.0000 0.0000
vn 1.0000 -0.0021 0.0000
vn -1.0000 0.0021 -0.0000
vn 0.9285 -0.0020 -0.3714
vn 0.9293 0.3694 0.0000
vn 0.9285 -0.0020 0.3714
vn 0.9277 -0.3734 -0.0000
vn -0.9285 0.0020 0.3714
vn -0.9277 0.3734 0.0000
vn -0.9285 0.0020 -0.3714
vn -0.9293 -0.3694 -0.0000
vn 0.8944 -0.0019 0.4472
vn 0.8935 -0.4491 -0.0000
vn 0.8944 -0.0019 -0.4472
vn 0.8954 0.4453 0.0000
vn -0.8944 0.0019 -0.4472
vn -0.8954 -0.4453 -0.0000
vn -0.8944 0.0019 0.4472
vn -0.8935 0.4491 0.0000
vn -0.0067 -1.0000 -0.0000
vn 0.0067 1.0000 0.0000
vn 0.9995 -0.0315 -0.0000
vn 0.9997 -0.0166 -0.0158
vn 0.9907 -0.0304 0.1324
vn 0.9998 -0.0200 0.0079
vn -0.9995 0.0322 -0.0000
vn -0.9998 0.0176 -0.0129
vn -0.9867 0.0311 0.1597
vn -0.9998 0.0203 0.0081
vn 0.9998 -0.0178 -0.0121
vn 1.0000 -0.0067 0.0000
vn 0.9999 -0.0111 0.0027
vn 0.9985 -0.0147 0.0527
vn 1.0000 -0.0089 -0.0035
vn 0.9999 -0.0086 -0.0061
vn 0.9999 -0.0150 0.0000
vn -0.9998 0.0164 -0.0115
vn -1.0000 0.0067 0.0000
vn -0.9999 0.0110 0.0026
vn -0.9990 0.0143 0.0428
vn -0.9999 0.0095 -0.0037
vn -0.9999 0.0082 -0.0074
vn -0.9999 0.0147 -0.0000
usemtl None
s off
f 17/1/1 21/2/1 33/3/1 34/4/1
f 21/2/2 22/5/2 35/6/2 33/3/2
f 22/5/3 18/7/3 36/8/3 35/6/3
f 18/7/4 17/1/4 34/4/4 36/8/4
f 19/9/3 23/10/3 37/11/3 38/12/3
f 23/10/2 24/13/2 39/14/2 37/11/2
f 24/13/1 20/15/1 40/16/1 39/14/1
f 20/15/4 19/9/4 38/12/4 40/16/4
f 34/4/5 33/3/5 41/17/5 42/18/5
f 33/3/5 35/6/5 43/19/5 41/17/5
f 35/6/5 36/8/5 44/20/5 43/19/5
f 36/8/5 34/4/5 42/18/5 44/20/5
f 38/12/6 37/11/6 45/21/6 46/22/6
f 37/11/6 39/14/6 47/23/6 45/21/6
f 39/14/6 40/16/6 48/24/6 47/23/6
f 40/16/6 38/12/6 46/22/6 48/24/6
f 42/18/7 41/17/7 49/25/7 50/26/7
f 41/17/8 43/19/8 51/27/8 49/25/8
f 43/19/9 44/20/9 52/28/9 51/27/9
f 44/20/10 42/18/10 50/26/10 52/28/10
f 46/22/11 45/21/11 53/29/11 54/30/11
f 45/21/12 47/23/12 55/31/12 53/29/12
f 47/23/13 48/24/13 56/32/13 55/31/13
f 48/24/14 46/22/14 54/30/14 56/32/14
f 50/26/5 49/25/5 57/33/5 58/34/5
f 49/25/5 51/27/5 59/35/5 57/33/5
f 51/27/5 52/28/5 60/36/5 59/35/5
f 52/28/5 50/26/5 58/34/5 60/36/5
f 54/30/6 53/29/6 61/37/6 62/38/6
f 53/29/6 55/31/6 63/39/6 61/37/6
f 55/31/6 56/32/6 64/40/6 63/39/6
f 56/32/6 54/30/6 62/38/6 64/40/6
f 58/34/15 57/33/15 25/41/15 28/42/15
f 57/33/16 59/35/16 26/43/16 25/41/16
f 59/35/17 60/36/17 27/44/17 26/43/17
f 60/36/18 58/34/18 28/42/18 27/44/18
f 62/38/19 61/37/19 29/45/19 32/46/19
f 61/37/20 63/39/20 30/47/20 29/45/20
f 63/39/21 64/40/21 31/48/21 30/47/21
f 64/40/22 62/38/22 32/46/22 31/48/22
s 1
f 1/49/23 2/50/23 3/51/23 4/52/23
f 5/53/23 4/52/23 3/51/23 6/54/23
f 5/53/23 6/54/23 7/55/23 8/56/23
f 9/57/24 10/58/24 11/59/24 12/60/24
f 9/57/24 12/60/24 13/61/24 14/62/24
f 13/61/24 15/63/24 16/64/24 14/62/24
f 5/65/1 8/66/1 10/67/1 9/68/1
f 6/69/25 17/1/26 18/7/27 7/70/28
f 3/71/3 2/72/3 15/73/3 13/74/3
f 4/75/29 19/9/30 20/15/31 1/76/32
f 3/77/33 13/61/34 12/78/35 21/2/36
f 3/77/33 21/2/36 17/1/26 6/69/25
f 10/79/37 8/56/34 7/70/28 18/7/27
f 10/79/37 18/7/27 22/5/38 11/80/39
f 5/53/40 9/81/41 14/82/42 23/10/43
f 5/53/40 23/10/43 19/9/30 4/75/29
f 15/63/44 2/83/41 1/76/32 20/15/31
f 15/63/44 20/15/31 24/13/45 16/84/46
f 25/41/5 26/43/5 27/44/5 28/42/5
f 29/45/6 30/47/6 31/48/6 32/46/6
f 12/78/35 11/80/39 22/5/38 21/2/36
f 14/82/42 16/84/46 24/13/45 23/10/43
