# Blender v2.77 (sub 0) OBJ File: 'Airlock_Door_Magnets_high.blend'
# www.blender.org
mtllib Door_Lower.mtl
o SectionDoorLower_HighPoly
v -0.185076 -0.019319 1.021009
v 0.187255 -0.021993 1.021009
v 0.187255 -0.021992 0.900000
v 0.187255 -0.021990 -0.900000
v 0.187255 -0.021990 -1.004082
v -0.185076 -0.019319 0.900000
v -0.185076 -0.019317 -1.004082
v -0.185076 -0.019317 -0.900000
v -0.192094 -1.069295 1.021008
v 0.180237 -1.071969 1.021008
v 0.182162 -0.538786 -0.850000
v 0.182162 -0.538788 0.850000
v 0.181821 -0.633182 0.850000
v 0.181821 -0.633180 -0.850001
v 0.180237 -1.071967 -1.004083
v -0.192094 -1.069293 -1.004083
v -0.190170 -0.537718 0.850000
v -0.190170 -0.537716 -0.850000
v -0.190510 -0.631576 -0.850001
v -0.190510 -0.631578 0.850000
v 0.183746 -0.099999 -0.900000
v 0.180237 -1.071967 -0.900001
v 0.180237 -1.071969 0.899999
v 0.183746 -0.100001 0.900000
v -0.188585 -0.100001 0.900000
v -0.192094 -1.069295 0.899999
v -0.192094 -1.069293 -0.900001
v -0.188585 -0.099999 -0.900000
v 0.158746 -0.099909 -0.900000
v 0.158045 -0.294302 -0.900000
v 0.157343 -0.488696 -0.900000
v 0.156641 -0.683089 -0.900000
v 0.155939 -0.877483 -0.900001
v 0.155237 -1.071877 -0.900001
v 0.158746 -0.099911 0.900000
v 0.155237 -1.071879 0.899999
v 0.155939 -0.877485 0.899999
v 0.156641 -0.683092 0.899999
v 0.157343 -0.488698 0.900000
v 0.158045 -0.294304 0.900000
v -0.163585 -0.100092 0.900000
v -0.164287 -0.293950 0.900000
v -0.164989 -0.487809 0.900000
v -0.165691 -0.681668 0.899999
v -0.166393 -0.875527 0.899999
v -0.167094 -1.069386 0.899999
v -0.163585 -0.100090 -0.900000
v -0.167094 -1.069384 -0.900001
v -0.166393 -0.875525 -0.900001
v -0.165691 -0.681666 -0.900000
v -0.164989 -0.487807 -0.900000
v -0.164287 -0.293948 -0.900000
v -0.188766 -0.150001 0.850000
v -0.188766 -0.149999 -0.850000
v -0.189106 -0.243858 -0.850000
v -0.189106 -0.243860 0.850000
v -0.166877 -1.009384 -0.890012
v -0.166877 -1.009386 0.890084
v -0.166610 -0.935527 0.890084
v -0.166610 -0.935525 -0.890012
v 0.183566 -0.149999 -0.850000
v 0.183566 -0.150001 0.850000
v 0.183225 -0.244395 0.850000
v 0.183225 -0.244393 -0.850000
v 0.155454 -1.011879 0.890084
v 0.155454 -1.011877 -0.890012
v 0.155723 -0.937483 -0.890012
v 0.155723 -0.937485 0.890084
v -0.191913 -1.019296 0.900084
v -0.191913 -1.019294 -0.900012
v -0.191573 -0.925434 -0.900012
v -0.191573 -0.925436 0.900084
v 0.180418 -1.021967 -0.900012
v 0.180418 -1.021969 0.900084
v 0.180759 -0.927575 0.900084
v 0.180759 -0.927573 -0.900012
v -0.191877 -1.009294 -0.890012
v -0.191610 -0.935434 -0.890012
v -0.191877 -1.009296 0.890084
v -0.191610 -0.935436 0.890084
v 0.180454 -1.011969 0.890084
v 0.180722 -0.937575 0.890084
v 0.180454 -1.011967 -0.890012
v 0.180722 -0.937573 -0.890012
v -0.067484 -1.120157 -0.800001
v 0.054854 -1.121103 -0.800001
v 0.054854 -1.121104 0.799999
v -0.067484 -1.120157 0.799999
v -0.117096 -1.069771 -0.850001
v -0.117096 -1.069773 0.849999
v 0.105239 -1.071490 -0.850001
v 0.105239 -1.071492 0.849999
vt 0.6667 0.0000
vt 0.6667 0.5000
vt 0.6667 0.5000
vt 0.6667 0.4000
vt 0.6667 0.3000
vt 0.6667 0.2000
vt 0.6667 0.1000
vt 0.6667 0.0000
vt 0.3333 0.5000
vt 0.3333 0.5000
vt 0.3333 0.0000
vt 0.3333 0.0000
vt 0.3333 0.1000
vt 0.3333 0.2000
vt 0.3333 0.3000
vt 0.3333 0.4000
vt 0.6667 0.0000
vt 0.6667 0.5000
vt 0.6667 0.5000
vt 0.6667 0.4000
vt 0.6667 0.3000
vt 0.6667 0.2000
vt 0.6667 0.1000
vt 0.6667 0.0000
vt 0.3333 0.5000
vt 0.3333 0.5000
vt 0.3333 0.0000
vt 0.3333 0.0000
vt 0.3333 0.1000
vt 0.3333 0.2000
vt 0.3333 0.3000
vt 0.3333 0.4000
vt 0.6667 0.0000
vt 0.3333 0.0000
vt 0.3333 0.1000
vt 0.6667 0.1000
vt 0.6667 0.0000
vt 0.3333 0.0000
vt 0.3333 0.1000
vt 0.6667 0.1000
vt 0.3333 0.0000
vt 0.3333 0.1000
vt 0.6667 0.0000
vt 0.6667 0.1000
vt 0.3333 0.0000
vt 0.3333 0.1000
vt 0.6667 0.0000
vt 0.6667 0.1000
vt 0.3333 0.0000
vt 0.3333 0.1000
vt 0.6667 0.0000
vt 0.6667 0.1000
vt 0.3333 0.0000
vt 0.3333 0.1000
vt 0.6667 0.0000
vt 0.6667 0.1000
vt 0.6667 0.3000
vt 0.6667 0.2000
vt 0.3333 0.3000
vt 0.3333 0.2000
vt 0.6667 0.3000
vt 0.6667 0.2000
vt 0.3333 0.3000
vt 0.3333 0.2000
vt 0.3333 0.5000
vt 0.6667 0.5000
vt 0.3333 0.4000
vt 0.6667 0.4000
vt 0.3333 0.5000
vt 0.6667 0.5000
vt 0.3333 0.4000
vt 0.6667 0.4000
vt 0.3333 0.0000
vt 0.6667 0.0000
vt 0.3333 0.0000
vt 0.6667 0.0000
vt 0.0000 0.0000
vt 0.0000 0.0000
vt 0.0000 0.0000
vt 0.0000 0.0000
vt 0.3333 0.0000
vt 0.6667 0.0000
vt 0.6667 0.0000
vt 0.3333 0.0000
vt 0.0000 0.0000
vt 1.0000 0.0000
vt 1.0000 0.3333
vt 1.0000 0.6667
vt 1.0000 1.0000
vt 0.0000 0.3333
vt 0.0000 1.0000
vt 0.0000 0.6667
vt 1.0000 0.0000
vt 1.0000 1.0000
vt 0.0000 1.0000
vt 1.0000 0.0000
vt 1.0000 1.0000
vt 0.0000 1.0000
vt 1.0000 0.0000
vt 0.6667 1.0000
vt 0.0000 1.0000
vt 0.3333 1.0000
vt 1.0000 0.0000
vt 1.0000 1.0000
vt 0.6667 1.0000
vt 0.3333 1.0000
vn -0.0000 -0.0000 1.0000
vn -0.0036 -1.0000 -0.0000
vn 0.0000 0.0000 -1.0000
vn -0.8960 -0.4440 -0.0000
vn -0.8928 0.4504 0.0000
vn 0.8928 -0.4504 -0.0000
vn 0.8960 0.4440 0.0000
vn -1.0000 0.0036 -0.0000
vn -1.0000 0.0037 0.0000
vn 1.0000 -0.0036 -0.0000
vn 1.0000 -0.0037 -0.0000
vn 0.0036 1.0000 0.0000
vn 0.8944 -0.0032 -0.4472
vn 0.8944 -0.0032 0.4472
vn -0.8944 0.0032 0.4472
vn -0.8928 0.4505 0.0000
vn -0.8944 0.0032 -0.4472
vn -0.0077 -1.0000 -0.0000
vn -0.0072 -1.0000 -0.0000
vn -0.7126 -0.7016 -0.0000
vn -0.0055 -0.7071 -0.7071
vn 0.7016 -0.7126 -0.0000
vn -0.0055 -0.7071 0.7071
vn 0.0072 1.0000 0.0000
vn 1.0000 -0.0040 0.0018
vn 1.0000 -0.0067 0.0000
vn 0.9996 -0.0270 0.0122
vn 0.9710 -0.0427 0.2353
vn 0.9997 -0.0189 -0.0150
vn 1.0000 -0.0065 -0.0020
vn 0.9996 -0.0261 -0.0121
vn 0.9990 -0.0449 -0.0000
vn -1.0000 0.0041 0.0018
vn -1.0000 0.0067 -0.0000
vn -0.9996 0.0264 0.0114
vn -0.9796 0.0415 0.1966
vn -0.9997 0.0205 -0.0160
vn -1.0000 0.0065 -0.0019
vn -0.9996 0.0246 -0.0146
vn -0.9991 0.0435 0.0000
usemtl None
s off
f 22/1/1 21/2/1 29/3/1 30/4/1
f 22/1/1 30/4/1 31/5/1 32/6/1
f 22/1/1 32/6/1 33/7/1 34/8/1
f 21/2/2 24/9/2 35/10/2 29/3/2
f 24/9/3 23/11/3 36/12/3 37/13/3
f 24/9/3 37/13/3 38/14/3 39/15/3
f 24/9/3 39/15/3 40/16/3 35/10/3
f 26/17/3 25/18/3 41/19/3 42/20/3
f 26/17/3 42/20/3 43/21/3 44/22/3
f 26/17/3 44/22/3 45/23/3 46/24/3
f 25/18/2 28/25/2 47/26/2 41/19/2
f 28/25/1 27/27/1 48/28/1 49/29/1
f 28/25/1 49/29/1 50/30/1 51/31/1
f 28/25/1 51/31/1 52/32/1 47/26/1
f 48/28/4 46/24/4 69/33/4 70/34/4
f 45/23/5 49/29/5 71/35/5 72/36/5
f 36/12/6 34/8/6 73/37/6 74/38/6
f 33/7/7 37/13/7 75/39/7 76/40/7
f 71/35/8 70/34/8 77/41/8 78/42/8
f 70/34/8 69/33/8 79/43/8 77/41/8
f 69/33/8 72/36/8 80/44/8 79/43/8
f 72/36/9 71/35/9 78/42/9 80/44/9
f 75/39/10 74/38/10 81/45/10 82/46/10
f 74/38/10 73/37/10 83/47/10 81/45/10
f 73/37/10 76/40/10 84/48/10 83/47/10
f 76/40/11 75/39/11 82/46/11 84/48/11
f 78/42/1 77/41/1 57/49/1 60/50/1
f 77/41/12 79/43/12 58/51/12 57/49/12
f 79/43/3 80/44/3 59/52/3 58/51/3
f 80/44/2 78/42/2 60/50/2 59/52/2
f 82/46/3 81/45/3 65/53/3 68/54/3
f 81/45/12 83/47/12 66/55/12 65/53/12
f 83/47/1 84/48/1 67/56/1 66/55/1
f 84/48/2 82/46/2 68/54/2 67/56/2
f 32/6/13 31/5/13 11/57/13 14/58/13
f 31/5/7 39/15/7 12/59/7 11/57/7
f 39/15/14 38/14/14 13/60/14 12/59/14
f 38/14/6 32/6/6 14/58/6 13/60/6
f 44/22/15 43/21/15 17/61/15 20/62/15
f 43/21/16 51/31/16 18/63/16 17/61/16
f 51/31/17 50/30/17 19/64/17 18/63/17
f 50/30/4 44/22/4 20/62/4 19/64/4
f 41/19/16 47/26/16 54/65/16 53/66/16
f 47/26/17 52/32/17 55/67/17 54/65/17
f 52/32/4 42/20/4 56/68/4 55/67/4
f 42/20/15 41/19/15 53/66/15 56/68/15
f 29/3/7 35/10/7 62/69/7 61/70/7
f 35/10/14 40/16/14 63/71/14 62/69/14
f 40/16/6 30/4/6 64/72/6 63/71/6
f 30/4/13 29/3/13 61/70/13 64/72/13
f 85/73/18 86/74/18 87/75/18 88/76/18
f 23/11/19 10/77/19 9/78/19 26/17/19
f 15/79/19 22/1/19 27/27/19 16/80/19
f 46/24/18 48/28/18 89/81/18 90/82/18
f 48/28/18 34/8/18 91/83/18 89/81/18
f 34/8/18 36/12/18 92/84/18 91/83/18
f 36/12/18 46/24/18 90/82/18 92/84/18
f 90/82/20 89/81/20 85/73/20 88/76/20
f 89/81/21 91/83/21 86/74/21 85/73/21
f 91/83/22 92/84/22 87/75/22 86/74/22
f 92/84/23 90/82/23 88/76/23 87/75/23
s 1
f 1/85/24 2/86/24 3/87/24 4/88/24
f 1/85/24 4/88/24 5/89/24 6/90/24
f 5/89/24 7/91/24 8/92/24 6/90/24
f 9/78/1 10/93/1 2/94/1 1/95/1
f 11/57/10 12/59/10 13/60/10 14/58/10
f 15/79/3 16/96/3 7/97/3 5/98/3
f 17/61/8 18/63/8 19/64/8 20/62/8
f 15/99/25 5/89/26 4/100/27 21/2/28
f 22/1/10 15/99/25 21/2/28
f 2/101/29 10/77/26 23/11/30 24/9/31
f 3/102/32 2/101/29 24/9/31
f 9/103/33 1/104/34 6/105/35 25/18/36
f 26/17/8 9/103/33 25/18/36
f 7/91/37 16/80/34 27/27/38 28/25/39
f 8/106/40 7/91/37 28/25/39
f 6/105/35 8/106/40 28/25/39 25/18/36
f 4/100/27 3/102/32 24/9/31 21/2/28
f 53/66/8 54/65/8 55/67/8 56/68/8
f 42/20/8 52/32/8 51/31/8 43/21/8
f 57/49/8 58/51/8 59/52/8 60/50/8
f 49/29/8 45/23/8 44/22/8 50/30/8
f 61/70/10 62/69/10 63/71/10 64/72/10
f 30/4/10 40/16/10 39/15/10 31/5/10
f 65/53/10 66/55/10 67/56/10 68/54/10
f 37/13/10 33/7/10 32/6/10 38/14/10
